<svg xmlns="http://www.w3.org/2000/svg" version="1.1" xmlns:xlink="http://www.w3.org/1999/xlink" width="2000" height="106" viewBox="0 0 2000 106"><svg xml:space="preserve" width="2000" height="106" data-version="2" data-id="lg_RyO5q5nwCMJDO8Y043" viewBox="0 0 559 106" x="0" y="0"><rect width="100%" height="100%" fill="transparent"></rect><path d="M20.87 21.97v30.27H36q3.11 0 5.86-1.19 2.74-1.19 4.8-3.24 2.05-2.06 3.24-4.83 1.19-2.77 1.19-5.88t-1.19-5.88q-1.19-2.77-3.24-4.82-2.06-2.06-4.8-3.25-2.75-1.18-5.86-1.18Zm0 60.48H5.73V6.83H36q4.17 0 8.02 1.08 3.85 1.08 7.2 3.06t6.11 4.75q2.77 2.77 4.75 6.14 1.98 3.38 3.06 7.23 1.08 3.85 1.08 8.01 0 3.9-.98 7.6-.97 3.69-2.79 7.01t-4.46 6.12q-2.63 2.79-5.9 4.85l8.38 19.77H44.39L37.8 67.21l-16.93.11Z"></path><rect width="60.49" height="75.62" x="-30.25" y="-37.81" fill="none" rx="0" ry="0" transform="translate(36.48 45.14)"></rect><path d="M128.66 82.45h-3.48l-5.59-7.75q-2.06 1.85-4.35 3.46-2.3 1.6-4.83 2.79-2.53 1.19-5.19 1.87-2.67.69-5.41.69-5.96 0-11.2-2.01-5.25-2-9.18-5.82-3.93-3.83-6.2-9.36-2.26-5.54-2.26-12.61 0-6.59 2.26-12.1 2.27-5.51 6.2-9.47 3.93-3.95 9.18-6.14 5.24-2.19 11.2-2.19 2.74 0 5.43.69 2.69.68 5.22 1.9 2.54 1.21 4.83 2.84 2.29 1.64 4.3 3.54l5.59-6.7h3.48Zm-14.5-28.74q0-2.95-1.14-5.72-1.13-2.77-3.08-4.9-1.95-2.14-4.56-3.43-2.62-1.29-5.57-1.29t-5.56 1q-2.61 1-4.54 2.95-1.92 1.95-3.03 4.83-1.11 2.87-1.11 6.56 0 3.69 1.11 6.57 1.11 2.87 3.03 4.82 1.93 1.95 4.54 2.96 2.61 1 5.56 1 2.95 0 5.57-1.29 2.61-1.3 4.56-3.43 1.95-2.14 3.08-4.91 1.14-2.76 1.14-5.72"></path><rect width="57.69" height="59.7" x="-28.84" y="-29.85" fill="none" rx="0" ry="0" transform="translate(100.31 54.16)"></rect><path d="M154.13 103.97h-14.5v-78h3.48l5.74 6.81q1.96-1.85 4.28-3.48 2.32-1.64 4.82-2.82 2.51-1.19 5.2-1.88 2.69-.68 5.43-.68 5.96 0 11.2 2.13 5.25 2.14 9.18 6.04 3.93 3.9 6.2 9.41 2.26 5.52 2.26 12.21 0 6.96-2.26 12.53-2.27 5.56-6.2 9.44-3.93 3.87-9.18 5.93-5.24 2.06-11.2 2.06-1.9 0-3.77-.43-1.88-.42-3.69-1.13-1.82-.71-3.59-1.61-1.77-.89-3.4-1.84Zm28.84-50.26q0-3.58-1.13-6.43-1.13-2.85-3.08-4.83-1.96-1.97-4.59-3.03-2.64-1.05-5.59-1.05-2.96 0-5.57 1.05-2.61 1.06-4.56 3.03-1.95 1.98-3.08 4.83-1.14 2.85-1.14 6.43 0 3.43 1.14 6.28 1.13 2.85 3.08 4.85 1.95 2 4.56 3.11 2.61 1.11 5.57 1.11 2.95 0 5.59-1.11 2.63-1.11 4.59-3.11 1.95-2 3.08-4.85 1.13-2.85 1.13-6.28"></path><rect width="57.79" height="80.05" x="-28.89" y="-40.02" fill="none" rx="0" ry="0" transform="translate(169.03 64.44)"></rect><path d="M222.37 10.63q0 2-.77 3.74-.76 1.74-2.08 3.04-1.32 1.29-3.09 2.05-1.76.77-3.77.77-2 0-3.77-.77-1.76-.76-3.06-2.05-1.29-1.3-2.05-3.04-.77-1.74-.77-3.74 0-1.95.77-3.72.76-1.77 2.05-3.06 1.3-1.29 3.06-2.05 1.77-.77 3.77-.77 2.01 0 3.77.77 1.77.76 3.09 2.05 1.32 1.29 2.08 3.06.77 1.77.77 3.72m-2.48 71.82h-14.5V25.97h14.5Z"></path><rect width="19.36" height="81.42" x="-9.68" y="-40.71" fill="none" rx="0" ry="0" transform="translate(213.19 42.24)"></rect><path d="M285.44 82.45h-3.48l-5.59-7.75q-2.06 1.85-4.35 3.46-2.3 1.6-4.83 2.79-2.53 1.19-5.19 1.87-2.67.69-5.41.69-5.96 0-11.2-2.24-5.25-2.24-9.18-6.23-3.93-3.98-6.2-9.44-2.26-5.45-2.26-11.89 0-6.38 2.26-11.86 2.27-5.49 6.2-9.49 3.93-4.01 9.18-6.28 5.24-2.27 11.2-2.27 1.9 0 3.93.32 2.03.32 3.95 1.03 1.93.71 3.62 1.87 1.68 1.16 2.84 2.85V3.51h14.51Zm-14.51-28.74q0-2.95-1.13-5.72-1.13-2.77-3.08-4.9-1.96-2.14-4.57-3.43-2.61-1.29-5.56-1.29-2.95 0-5.56 1.05-2.61 1.06-4.54 3.03-1.92 1.98-3.03 4.83-1.11 2.85-1.11 6.43 0 3.11 1.11 5.91 1.11 2.79 3.03 4.9 1.93 2.11 4.54 3.33 2.61 1.21 5.56 1.21 2.95 0 5.56-1.29 2.61-1.3 4.57-3.43 1.95-2.14 3.08-4.91 1.13-2.76 1.13-5.72"></path><rect width="57.69" height="80" x="-28.84" y="-40" fill="none" rx="0" ry="0" transform="translate(257.1 44.01)"></rect><path d="M343.29 21.97v30.27h15.13q3.11 0 5.85-1.19 2.75-1.19 4.8-3.24 2.06-2.06 3.25-4.83 1.18-2.77 1.18-5.88t-1.18-5.88q-1.19-2.77-3.25-4.82-2.05-2.06-4.8-3.25-2.74-1.18-5.85-1.18Zm0 60.48h-15.14V6.83h30.27q4.17 0 8.02 1.08 3.85 1.08 7.2 3.06 3.34 1.98 6.11 4.75 2.77 2.77 4.75 6.14 1.98 3.38 3.06 7.23 1.08 3.85 1.08 8.01 0 3.9-.98 7.6-.97 3.69-2.79 7.01t-4.46 6.12q-2.64 2.79-5.9 4.85l8.38 19.77h-16.08l-6.6-15.24-16.92.11Z"></path><rect width="60.49" height="75.62" x="-30.25" y="-37.81" fill="none" rx="0" ry="0" transform="translate(358.9 45.14)"></rect><path d="M418.85 68.64q.85.26 1.69.34.85.08 1.69.08 2.11 0 4.06-.58 1.95-.58 3.67-1.66 1.71-1.08 3.05-2.64 1.35-1.55 2.19-3.45l10.55 10.6q-2 2.84-4.61 5.11-2.62 2.27-5.65 3.85-3.03 1.58-6.38 2.4-3.35.82-6.88.82-5.96 0-11.21-2.22-5.24-2.21-9.17-6.17-3.93-3.95-6.2-9.41t-2.27-12q0-6.69 2.27-12.23t6.2-9.44q3.93-3.9 9.17-6.07 5.25-2.16 11.21-2.16 3.53 0 6.91.85 3.37.84 6.41 2.42 3.03 1.58 5.66 3.88 2.64 2.29 4.64 5.14Zm7.39-29.69q-1-.37-1.98-.48-.98-.1-2.03-.1-2.95 0-5.56 1.08-2.61 1.08-4.54 3.08-1.92 2.01-3.03 4.83-1.11 2.82-1.11 6.35 0 .79.08 1.8.08 1 .26 2.03.19 1.02.45 1.97.27.95.69 1.69Z"></path><rect width="52.47" height="59.7" x="-26.23" y="-29.85" fill="none" rx="0" ry="0" transform="translate(420.12 54.16)"></rect><path d="M467.48 82.45h-14.4V25.97h3.48l4.75 5.49q3.48-3.16 7.88-4.88 4.4-1.71 9.2-1.71 5.17 0 9.76 1.97 4.59 1.98 8.01 5.44 3.43 3.45 5.41 8.06 1.98 4.62 1.98 9.84v32.27h-14.4V50.18q0-2.22-.84-4.19-.85-1.98-2.32-3.46-1.48-1.47-3.43-2.32-1.95-.84-4.17-.84-2.27 0-4.27.84-2 .85-3.48 2.32-1.48 1.48-2.32 3.46-.84 1.97-.84 4.19Z"></path><rect width="50.47" height="57.58" x="-25.23" y="-28.79" fill="none" rx="0" ry="0" transform="translate(478.81 54.16)"></rect><path d="M541.36 82.45q-5.22 0-9.81-1.97-4.59-1.98-8.04-5.44-3.46-3.45-5.44-8.04-1.97-4.59-1.97-9.81V40.42h-7.02V26.08h7.02V3.51h14.34v22.57h21.83v14.34h-21.83v16.77q0 2.27.84 4.25.85 1.98 2.32 3.45 1.48 1.48 3.49 2.35 2 .87 4.27.87h10.91v14.34Z"></path><rect width="43.19" height="78.94" x="-21.59" y="-39.47" fill="none" rx="0" ry="0" transform="translate(531.17 43.48)"></rect></svg></svg>